<?xml version="1.0" encoding="utf-8"?>
<!-- Generator: Adobe Adobe Illustrator 28.5.0, SVG Export Plug-In . SVG Version: 6.00 Build 0)  -->
<svg version="1.1" id="Layer_1" xmlns="http://www.w3.org/2000/svg" xmlns:xlink="http://www.w3.org/1999/xlink" x="0px" y="0px"
	 viewBox="0 0 792 612" style="enable-background:new 0 0 792 612;" xml:space="preserve">
<style type="text/css">
	.st0{fill:#172F4D;}
	.st1{fill-rule:evenodd;clip-rule:evenodd;fill:#172F4D;}
</style>
<g>
	<path class="st0" d="M206.6,307.76v39.68h17.58v-40.08c0.02-2.6,0.6-4.86,1.73-6.81c1.13-1.95,2.71-3.48,4.71-4.57
		c2-1.09,4.28-1.64,6.88-1.66c2.31,0.02,4.24,0.35,5.79,0.98c1.55,0.64,2.82,1.49,3.75,2.51c0.95,1.02,1.69,2.13,2.15,3.31
		c0.49,1.18,0.82,2.31,1,3.42c0.16,1.11,0.24,2.04,0.22,2.84v40.08h17.58v-39.68c0-4.51-0.69-8.63-2.06-12.36
		c-1.38-3.75-3.37-6.97-5.99-9.7c-2.62-2.71-5.81-4.82-9.59-6.3c-3.77-1.49-8.06-2.24-12.85-2.26c-4.68,0.02-8.9,0.8-12.69,2.33
		c-3.77,1.53-7.04,3.68-9.74,6.44c-2.71,2.77-4.79,6.01-6.26,9.72C207.36,299.32,206.62,303.36,206.6,307.76z"/>
	<path class="st0" d="M421.28,307.76v39.68h17.58v-40.08c0.02-2.6,0.6-4.86,1.73-6.81c1.13-1.95,2.71-3.48,4.71-4.57
		c2-1.09,4.28-1.64,6.88-1.66c2.31,0.02,4.24,0.35,5.79,0.98c1.55,0.64,2.82,1.49,3.75,2.51c0.95,1.02,1.69,2.13,2.15,3.31
		c0.49,1.18,0.82,2.31,1,3.42c0.16,1.11,0.24,2.04,0.22,2.84v40.08h17.58v-39.68c0-4.51-0.69-8.63-2.06-12.36
		c-1.38-3.75-3.37-6.97-5.99-9.7c-2.62-2.71-5.81-4.82-9.59-6.3c-3.77-1.49-8.06-2.24-12.85-2.26c-4.68,0.02-8.9,0.8-12.69,2.33
		c-3.77,1.53-7.04,3.68-9.74,6.44c-2.71,2.77-4.79,6.01-6.26,9.72C422.03,299.32,421.3,303.36,421.28,307.76z"/>
	<path class="st0" d="M516.09,331.37c-2.52,0.08-4.64-0.25-6.38-0.96c-1.95-0.8-3.42-2.15-4.39-4.08c-0.98-1.91-1.46-4.48-1.46-7.66
		v-24.24h14.06c1.61-2.87,3.58-5.53,5.9-7.93c3.07-3.15,6.6-5.71,10.53-7.65h-30.49v-17.44h-17.58v57.13
		c0,4.71,0.67,8.94,1.98,12.72c1.31,3.75,3.26,6.92,5.86,9.5c2.6,2.57,5.81,4.44,9.63,5.59c3.84,1.15,8.26,1.46,13.29,0.95
		l11.51-0.34c-1.68-1.22-3.25-2.59-4.72-4.1C520.53,339.52,517.97,335.65,516.09,331.37z"/>
	<path class="st0" d="M550.78,278.68c-4.79,0.02-9.25,0.95-13.43,2.75c-4.15,1.82-7.81,4.35-10.96,7.59
		c-3.15,3.26-5.61,7.08-7.39,11.45c-1.78,4.37-2.69,9.14-2.71,14.29c0.02,5.15,0.93,9.9,2.71,14.25c1.78,4.35,4.24,8.12,7.39,11.34
		c3.15,3.24,6.81,5.73,10.96,7.52c4.17,1.78,8.63,2.69,13.43,2.71c4.79-0.02,9.28-0.93,13.45-2.71c4.17-1.8,7.83-4.28,11.01-7.52
		c3.17-3.22,5.64-6.99,7.43-11.34c1.8-4.35,2.71-9.1,2.73-14.25c-0.02-5.15-0.93-9.92-2.73-14.29c-1.8-4.37-4.26-8.19-7.43-11.45
		c-3.17-3.24-6.84-5.77-11.01-7.59C560.05,279.63,555.57,278.7,550.78,278.68L550.78,278.68z M550.78,334.47
		c-3.15-0.02-5.99-0.87-8.52-2.51c-2.55-1.64-4.57-3.91-6.08-6.84s-2.26-6.35-2.31-10.23c0.04-3.97,0.8-7.48,2.31-10.48
		c1.51-3.02,3.53-5.37,6.08-7.06c2.53-1.69,5.37-2.55,8.52-2.57c3.15,0.02,5.99,0.89,8.52,2.57c2.55,1.69,4.57,4.04,6.08,7.06
		c1.51,3,2.26,6.5,2.31,10.48c-0.04,3.88-0.8,7.3-2.31,10.23c-1.51,2.93-3.53,5.19-6.08,6.84
		C556.77,333.61,553.93,334.45,550.78,334.47z"/>
	<path class="st1" d="M320.07,298.7l-32.23,13.58c0.18-3.93,1.09-7.37,2.75-10.32c1.69-2.95,3.91-5.24,6.66-6.88
		c2.75-1.64,5.82-2.49,9.23-2.51c2.82,0.02,5.37,0.55,7.7,1.62C316.5,295.26,318.45,296.75,320.07,298.7L320.07,298.7z
		 M314.56,348.31c18.33-3.11,26.29-14.19,34.99-26.31c4.27-5.94,11.4-16.42,19.71-22.96c6.49-5.1,14.87-8.19,22.32-3.22
		c2.55,1.69,4.57,4.04,6.08,7.06c1.51,3,2.26,6.5,2.31,10.48c-0.04,3.88-0.8,7.3-2.31,10.23c-1.51,2.93-3.53,5.19-6.08,6.84
		c-2.53,1.64-5.37,2.49-8.52,2.51c-3.15-0.02-5.99-0.87-8.52-2.51c-2.55-1.64-4.57-3.91-6.08-6.84c-1.51-2.93-2.26-6.35-2.31-10.23
		c0.02-2.09,0.24-4.05,0.67-5.88c-6.42,5.83-11.65,13.52-15.79,19.34c0.08,0.22,0.17,0.44,0.26,0.65c1.78,4.35,4.24,8.12,7.39,11.34
		c3.15,3.24,6.81,5.73,10.96,7.52c4.17,1.78,8.63,2.69,13.43,2.71c4.79-0.02,9.28-0.93,13.45-2.71c4.17-1.8,7.83-4.28,11.01-7.52
		c3.17-3.22,5.64-6.99,7.43-11.34c1.8-4.35,2.71-9.1,2.73-14.25c-0.02-5.15-0.93-9.92-2.73-14.29c-1.8-4.37-4.26-8.19-7.43-11.45
		c-3.17-3.24-6.84-5.77-11.01-7.59c-4.17-1.8-8.66-2.73-13.45-2.75c-11.68,0.05-21.18,6.15-29.17,14.27
		c-10.91,11.09-18.2,25.27-28.99,34.2c-3.23,2.68-6.79,4.89-10.84,6.4c-0.62,0.28-1.25,0.52-1.91,0.73c-0.92,0.29-1.85,0.5-2.8,0.65
		c-0.94,0.14-1.9,0.22-2.86,0.22c-3.02-0.02-5.77-0.64-8.28-1.91c-2.49-1.27-4.62-3.06-6.37-5.42l48.47-20.37
		c-0.84-4.59-2.31-8.68-4.35-12.25c-2.04-3.55-4.55-6.57-7.55-9.03c-3-2.44-6.35-4.31-10.03-5.57c-3.68-1.27-7.61-1.91-11.76-1.91
		c-4.88,0.02-9.45,0.98-13.69,2.84c-4.24,1.86-7.97,4.46-11.16,7.77c-3.22,3.31-5.73,7.12-7.55,11.47c-1.8,4.35-2.73,9.01-2.75,14
		c0.02,4.99,0.95,9.65,2.75,13.96c1.82,4.33,4.33,8.12,7.55,11.39c3.2,3.28,6.92,5.84,11.16,7.68c4.24,1.82,8.81,2.77,13.69,2.8
		c0.86,0,1.7-0.03,2.53-0.08C311.05,348.82,312.85,348.6,314.56,348.31z"/>
</g>
</svg>
